<svg width="20" height="20" viewBox="0 0 20 20" fill="none" xmlns="http://www.w3.org/2000/svg">
<path d="M10.48 13.842H15.4C16.296 13.842 17 13.129 17 12.276V5.566C17 4.713 16.296 4 15.4 4H4.59998C3.70398 4 2.99998 4.713 2.99998 5.566V12.276C2.99998 13.129 3.70398 13.842 4.59998 13.842H6.19998V17H6.20298L6.20498 16.999L10.481 13.842H10.48ZM6.79998 17.803C6.5871 17.9599 6.32112 18.027 6.05929 17.9898C5.79745 17.9526 5.5607 17.814 5.39998 17.604C5.27114 17.4343 5.20126 17.2271 5.20098 17.014V14.842H4.60098C3.16498 14.842 2.00098 13.693 2.00098 12.276V5.566C1.99998 4.149 3.16398 3 4.59998 3H15.4C16.836 3 18 4.149 18 5.566V12.276C18 13.694 16.836 14.842 15.4 14.842H10.81L6.79898 17.803H6.79998Z" fill="black"/>
</svg>
