<svg width="16" height="16" viewBox="0 0 16 16" fill="none" xmlns="http://www.w3.org/2000/svg">
<path d="M11.7063 14.3751C11.5364 14.3731 11.3703 14.3256 11.225 14.2376L8.07502 12.2376C8.05301 12.2223 8.02684 12.2141 8.00002 12.2141C7.9732 12.2141 7.94703 12.2223 7.92502 12.2376L4.99377 14.0939C4.82697 14.2027 4.63067 14.2576 4.4316 14.2508C4.23252 14.2441 4.04036 14.1762 3.88127 14.0564C3.71357 13.9362 3.58659 13.7676 3.51734 13.5732C3.44808 13.3789 3.43986 13.168 3.49377 12.9689L4.33752 9.6501C4.3453 9.61859 4.34416 9.58553 4.33422 9.55462C4.32429 9.52372 4.30595 9.49619 4.28127 9.4751L1.45627 7.11885C1.3141 7.00124 1.21064 6.84353 1.15936 6.66629C1.10808 6.48904 1.11136 6.30046 1.16877 6.1251C1.22449 5.95297 1.33046 5.80146 1.47304 5.69007C1.61562 5.57868 1.78827 5.51252 1.96877 5.5001L5.66252 5.2626C5.69067 5.25944 5.71735 5.24837 5.73947 5.23067C5.7616 5.21297 5.77825 5.18937 5.78752 5.1626L7.16252 1.7001C7.2287 1.53192 7.34398 1.38755 7.49336 1.2858C7.64273 1.18406 7.81928 1.12964 8.00002 1.12964C8.18076 1.12964 8.35731 1.18406 8.50668 1.2858C8.65606 1.38755 8.77134 1.53192 8.83752 1.7001L10.2125 5.1626C10.2218 5.18937 10.2384 5.21297 10.2606 5.23067C10.2827 5.24837 10.3094 5.25944 10.3375 5.2626L14.0313 5.5001C14.2118 5.51252 14.3844 5.57868 14.527 5.69007C14.6696 5.80146 14.7755 5.95297 14.8313 6.1251C14.8887 6.30046 14.892 6.48904 14.8407 6.66629C14.7894 6.84353 14.6859 7.00124 14.5438 7.11885L11.7188 9.4751C11.6941 9.49619 11.6758 9.52372 11.6658 9.55462C11.6559 9.58553 11.6547 9.61859 11.6625 9.6501L12.575 13.2314C12.6215 13.4102 12.613 13.5989 12.5505 13.7729C12.4881 13.9468 12.3747 14.0979 12.225 14.2064C12.0741 14.3157 11.8926 14.3747 11.7063 14.3751V14.3751ZM8.00002 11.4689C8.16843 11.467 8.33366 11.5148 8.47502 11.6064L11.6313 13.6001C11.6545 13.616 11.6823 13.6239 11.7104 13.6228C11.7386 13.6217 11.7656 13.6115 11.7875 13.5939C11.8151 13.5736 11.8358 13.5453 11.847 13.513C11.8582 13.4806 11.8592 13.4456 11.85 13.4126L10.9375 9.83135C10.8947 9.66363 10.9002 9.48723 10.9533 9.32247C11.0063 9.15772 11.1049 9.0113 11.2375 8.9001L14.0625 6.54385C14.0894 6.52316 14.1088 6.49429 14.1178 6.46159C14.1269 6.42889 14.125 6.39415 14.1125 6.3626C14.1058 6.33215 14.0894 6.30471 14.0657 6.28442C14.042 6.26413 14.0124 6.25208 13.9813 6.2501L10.2938 6.0126C10.1238 5.99903 9.96084 5.93873 9.82297 5.83836C9.6851 5.73799 9.57766 5.60146 9.51252 5.44385L8.13752 1.9751C8.12854 1.94564 8.11032 1.91984 8.08557 1.90151C8.06081 1.88317 8.03082 1.87328 8.00002 1.87328C7.96922 1.87328 7.93923 1.88317 7.91447 1.90151C7.88972 1.91984 7.8715 1.94564 7.86252 1.9751L6.48752 5.44385C6.42238 5.60146 6.31494 5.73799 6.17707 5.83836C6.0392 5.93873 5.87627 5.99903 5.70627 6.0126L2.01877 6.2501C1.98765 6.25208 1.95802 6.26413 1.93435 6.28442C1.91067 6.30471 1.89424 6.33215 1.88752 6.3626C1.87505 6.39415 1.87319 6.42889 1.88221 6.46159C1.89123 6.49429 1.91064 6.52316 1.93752 6.54385L4.76252 8.9001C4.89517 9.0113 4.99371 9.15772 5.04679 9.32247C5.09987 9.48723 5.10532 9.66363 5.06252 9.83135L4.21877 13.1564C4.20393 13.2097 4.20554 13.2663 4.22338 13.3187C4.24122 13.3711 4.27447 13.4169 4.31877 13.4501C4.35801 13.4797 4.40526 13.4967 4.45434 13.4989C4.50341 13.5011 4.55201 13.4885 4.59377 13.4626L7.52502 11.6064C7.66638 11.5148 7.83161 11.467 8.00002 11.4689Z" fill="black"/>
</svg>
