<svg width="16" height="14" viewBox="0 0 16 14" fill="none" xmlns="http://www.w3.org/2000/svg">
<g clip-path="url(#clip0_150_105)">
<path d="M14.625 5.21875L11.8 7.56875L12.6938 11.2C12.7349 11.3522 12.7405 11.5118 12.7103 11.6666C12.68 11.8213 12.6147 11.967 12.5194 12.0926C12.424 12.2181 12.3011 12.3201 12.1602 12.3908C12.0192 12.4614 11.8639 12.4988 11.7063 12.5C11.5132 12.4991 11.3244 12.4427 11.1625 12.3375L8.00627 10.3438H7.99377L5.06252 12.2C4.87316 12.3195 4.65247 12.3797 4.42867 12.373C4.20488 12.3664 3.98817 12.293 3.80627 12.1625C3.61888 12.0258 3.47695 11.8358 3.39892 11.6174C3.3209 11.3989 3.3104 11.162 3.36877 10.9375L4.21252 7.61875L1.37502 5.21875C1.21404 5.08423 1.09704 4.90458 1.03911 4.70294C0.981185 4.50131 0.984985 4.28695 1.05002 4.0875C1.11336 3.89106 1.23418 3.71814 1.39686 3.59112C1.55954 3.4641 1.75659 3.38881 1.96252 3.375L5.65002 3.1375L7.05002 -0.35C7.1251 -0.540998 7.25579 -0.70506 7.42516 -0.820948C7.59454 -0.936835 7.7948 -0.999211 8.00002 -1C8.20525 -0.999211 8.40551 -0.936835 8.57488 -0.820948C8.74425 -0.70506 8.87494 -0.540998 8.95002 -0.35L10.325 3.11875L14.0375 3.375C14.2437 3.38797 14.4412 3.46294 14.604 3.59009C14.7668 3.71723 14.8874 3.89061 14.95 4.0875C15.0151 4.28695 15.0189 4.50131 14.9609 4.70294C14.903 4.90458 14.786 5.08423 14.625 5.21875V5.21875Z" fill="#78B100"/>
</g>
<defs>
<clipPath id="clip0_150_105">
<rect width="16" height="16" fill="white" transform="translate(0 -2)"/>
</clipPath>
</defs>
</svg>
