<svg width="278" height="278" viewBox="0 0 278 278" fill="none" xmlns="http://www.w3.org/2000/svg">
<path d="M177.008 27.7457C161.696 28.8859 149.588 34.0441 140.032 43.546C136.611 46.9667 134.819 49.2472 133.462 51.9621C131.724 55.4913 131.67 55.8714 131.67 62.1699C131.67 69.5542 132.43 72.4863 136.339 80.0878C139.489 86.332 142.909 90.7843 149.045 96.9199C161.045 108.919 175.433 116.304 187.107 116.358C190.908 116.412 191.777 116.25 194.003 114.946C199.107 111.906 201.387 106.313 201.821 95.291C202.147 87.6894 201.496 80.0878 199.758 71.7261C199.215 68.957 198.727 65.9706 198.727 65.0476C198.727 62.8214 200.898 60.8124 203.342 60.8124C207.197 60.8124 208.337 63.3644 210.563 77.1015C211.921 85.6261 211.758 100.938 210.238 106.53C207.414 116.901 202.31 122.819 194.111 125.209C189.93 126.403 181.189 126.023 175.379 124.34C164.357 121.245 152.194 113.698 142.529 103.978C130.747 92.196 124.068 80.1964 122.114 67.4367L121.462 62.9843H116.793C114.241 62.9843 108.974 63.3644 105.064 63.7988C56.4688 69.2827 17.2121 94.4222 4.50664 128.141C2.82344 132.593 0.705863 141.498 0.217192 146.167C-0.10859 149.588 -0.0542928 149.859 1.24883 151.162C4.07227 153.986 5.3211 153.226 11.5109 144.647C13.2484 142.258 15.5832 139.38 16.7234 138.24L18.841 136.231L19.2211 139.109C20.1984 146.439 21.8816 151.162 27.4742 162.076C33.0668 173.098 35.4559 178.962 37.5191 186.944C40.0168 196.718 40.234 199.269 40.5055 221.531C40.6684 233.314 40.8856 243.521 40.9941 244.173C41.3199 245.585 44.9035 247.811 48.7043 248.951C58.8578 251.937 76.0699 250.526 81.7711 246.236L83.4543 244.933L83.8344 231.739C84.2688 216.916 84.6488 215.016 87.9609 210.618C90.6215 207.088 93.3906 205.079 97.6801 203.613C100.829 202.582 102.078 202.473 111.254 202.636C121.082 202.799 121.462 202.853 124.503 204.319C128.629 206.382 132.756 210.455 134.548 214.31C135.959 217.35 136.014 217.893 136.394 231.033L136.828 244.607L138.511 246.073C143.561 250.417 160.61 251.937 171.47 249.005C175.325 247.974 179.125 245.639 179.397 244.173C179.56 243.521 179.777 236.626 179.94 228.861C180.266 211.541 181.08 205.785 184.718 194.383C190.365 176.736 202.147 160.23 217.296 148.719C232.608 137.045 239.449 138.946 239.449 154.8C239.449 161.533 238.743 166.528 236.517 175.813C233.802 186.835 233.259 191.396 233.639 198.944C234.454 214.473 240.264 227.287 251.34 237.983C256.933 243.359 258.942 244.553 261.439 244.119C265.077 243.413 269.855 237.603 269.855 233.802C269.855 231.848 269.095 230.49 266.489 227.612C260.353 220.88 258.616 209.694 261.657 196.283C263.014 190.256 264.046 186.944 267.629 177.605C284.407 133.896 280.661 95.0738 256.661 63.0386C249.223 53.048 237.386 42.4601 229.024 38.2249C221.205 34.2613 210.943 30.8949 201.333 29.1031C197.315 28.3429 184.718 27.0398 183.252 27.257C182.98 27.257 180.157 27.4742 177.008 27.7457Z" fill="#FFB800" fill-opacity="0.38"/>
</svg>
