<svg width="34" height="34" viewBox="0 0 34 34" fill="none" xmlns="http://www.w3.org/2000/svg">
<path d="M4.24999 26.9166C3.8486 26.9166 3.51238 26.7806 3.24132 26.5086C2.96932 26.2375 2.83332 25.9013 2.83332 25.4999C2.83332 25.0985 2.96932 24.7623 3.24132 24.4912C3.51238 24.2192 3.8486 24.0832 4.24999 24.0832H29.75C30.1514 24.0832 30.4876 24.2192 30.7587 24.4912C31.0307 24.7623 31.1667 25.0985 31.1667 25.4999C31.1667 25.9013 31.0307 26.2375 30.7587 26.5086C30.4876 26.7806 30.1514 26.9166 29.75 26.9166H4.24999ZM3.54166 17.8145C3.28193 17.6728 3.11666 17.4603 3.04582 17.177C2.97499 16.8937 3.01041 16.6221 3.15207 16.3624L3.82499 15.1582H2.47916C2.17221 15.1582 1.91816 15.0577 1.71699 14.8565C1.51677 14.6563 1.41666 14.4027 1.41666 14.0957C1.41666 13.7888 1.51677 13.5347 1.71699 13.3336C1.91816 13.1333 2.17221 13.0332 2.47916 13.0332H3.82499L3.15207 11.8999C3.01041 11.6402 2.97499 11.3687 3.04582 11.0853C3.11666 10.802 3.28193 10.5895 3.54166 10.4478C3.80138 10.3062 4.07291 10.2707 4.35624 10.3416C4.63957 10.4124 4.85207 10.5777 4.99374 10.8374L5.66666 11.9707L6.33957 10.8374C6.48124 10.5777 6.69374 10.4124 6.97707 10.3416C7.26041 10.2707 7.53193 10.3062 7.79166 10.4478C8.05138 10.5895 8.21666 10.802 8.28749 11.0853C8.35832 11.3687 8.32291 11.6402 8.18124 11.8999L7.50832 13.0332H8.85416C9.1611 13.0332 9.41468 13.1333 9.61491 13.3336C9.81607 13.5347 9.91666 13.7888 9.91666 14.0957C9.91666 14.4027 9.81607 14.6563 9.61491 14.8565C9.41468 15.0577 9.1611 15.1582 8.85416 15.1582H7.50832L8.18124 16.3624C8.32291 16.6221 8.35832 16.8937 8.28749 17.177C8.21666 17.4603 8.05138 17.6728 7.79166 17.8145C7.53193 17.9562 7.26041 17.9916 6.97707 17.9207C6.69374 17.8499 6.48124 17.6846 6.33957 17.4249L5.66666 16.2207L4.99374 17.4249C4.85207 17.6846 4.63957 17.8499 4.35624 17.9207C4.07291 17.9916 3.80138 17.9562 3.54166 17.8145ZM14.875 17.8145C14.6153 17.6728 14.45 17.4603 14.3792 17.177C14.3083 16.8937 14.3437 16.6221 14.4854 16.3624L15.1583 15.1582H13.8125C13.5055 15.1582 13.252 15.0577 13.0517 14.8565C12.8506 14.6563 12.75 14.4027 12.75 14.0957C12.75 13.7888 12.8506 13.5347 13.0517 13.3336C13.252 13.1333 13.5055 13.0332 13.8125 13.0332H15.1583L14.4854 11.8999C14.3437 11.6402 14.3083 11.3687 14.3792 11.0853C14.45 10.802 14.6153 10.5895 14.875 10.4478C15.1347 10.3062 15.4062 10.2707 15.6896 10.3416C15.9729 10.4124 16.1854 10.5777 16.3271 10.8374L17 11.9707L17.6729 10.8374C17.8146 10.5777 18.0271 10.4124 18.3104 10.3416C18.5937 10.2707 18.8653 10.3062 19.125 10.4478C19.3847 10.5895 19.55 10.802 19.6208 11.0853C19.6917 11.3687 19.6562 11.6402 19.5146 11.8999L18.8417 13.0332H20.1875C20.4944 13.0332 20.7485 13.1333 20.9497 13.3336C21.1499 13.5347 21.25 13.7888 21.25 14.0957C21.25 14.4027 21.1499 14.6563 20.9497 14.8565C20.7485 15.0577 20.4944 15.1582 20.1875 15.1582H18.8417L19.5146 16.3624C19.6562 16.6221 19.6917 16.8937 19.6208 17.177C19.55 17.4603 19.3847 17.6728 19.125 17.8145C18.8653 17.9562 18.5937 17.9916 18.3104 17.9207C18.0271 17.8499 17.8146 17.6846 17.6729 17.4249L17 16.2207L16.3271 17.4249C16.1854 17.6846 15.9729 17.8499 15.6896 17.9207C15.4062 17.9916 15.1347 17.9562 14.875 17.8145V17.8145ZM26.2083 17.8145C25.9486 17.6728 25.7833 17.4603 25.7125 17.177C25.6417 16.8937 25.6771 16.6221 25.8187 16.3624L26.4917 15.1582H25.1458C24.8389 15.1582 24.5848 15.0577 24.3837 14.8565C24.1834 14.6563 24.0833 14.4027 24.0833 14.0957C24.0833 13.7888 24.1834 13.5347 24.3837 13.3336C24.5848 13.1333 24.8389 13.0332 25.1458 13.0332H26.4917L25.8187 11.8999C25.6771 11.6402 25.6417 11.3687 25.7125 11.0853C25.7833 10.802 25.9486 10.5895 26.2083 10.4478C26.468 10.3062 26.7396 10.2707 27.0229 10.3416C27.3062 10.4124 27.5187 10.5777 27.6604 10.8374L28.3333 11.9707L29.0062 10.8374C29.1479 10.5777 29.3604 10.4124 29.6437 10.3416C29.9271 10.2707 30.1986 10.3062 30.4583 10.4478C30.718 10.5895 30.8833 10.802 30.9542 11.0853C31.025 11.3687 30.9896 11.6402 30.8479 11.8999L30.175 13.0332H31.5208C31.8278 13.0332 32.0818 13.1333 32.283 13.3336C32.4832 13.5347 32.5833 13.7888 32.5833 14.0957C32.5833 14.4027 32.4832 14.6563 32.283 14.8565C32.0818 15.0577 31.8278 15.1582 31.5208 15.1582H30.175L30.8479 16.3624C30.9896 16.6221 31.025 16.8937 30.9542 17.177C30.8833 17.4603 30.718 17.6728 30.4583 17.8145C30.1986 17.9562 29.9271 17.9916 29.6437 17.9207C29.3604 17.8499 29.1479 17.6846 29.0062 17.4249L28.3333 16.2207L27.6604 17.4249C27.5187 17.6846 27.3062 17.8499 27.0229 17.9207C26.7396 17.9916 26.468 17.9562 26.2083 17.8145Z" fill="black"/>
</svg>
